<?xml version="1.0" encoding="utf-8"?>
<!-- Generator: Adobe Illustrator 24.0.1, SVG Export Plug-In . SVG Version: 6.00 Build 0)  -->
<svg version="1.1" id="Camada_1" xmlns="http://www.w3.org/2000/svg" xmlns:xlink="http://www.w3.org/1999/xlink" x="0px" y="0px"
	 viewBox="0 0 1035.6 1176.6" style="enable-background:new 0 0 1035.6 1176.6;" xml:space="preserve">
<style type="text/css">
	.st0{fill:url(#SVGID_1_);}
</style>
<title>Logo_Cap-Code</title>
<g id="Camada_2_1_">
	
		<linearGradient id="SVGID_1_" gradientUnits="userSpaceOnUse" x1="-55.3997" y1="1249.0039" x2="1408.3104" y2="-424.6662" gradientTransform="matrix(1 0 0 -1 0 1261.9141)">
		<stop  offset="0" style="stop-color:#208CFF"/>
		<stop  offset="1" style="stop-color:#00FF84"/>
	</linearGradient>
	<path class="st0" d="M448.2,0c-168.3-0.2-320,70.2-427.4,183.2c-32,33.7-26.2,88.1,11.8,114.8l1,0.7c30.9,21.5,72.8,17.4,98.9-9.8
		c3.1-3.2,6.3-6.4,9.5-9.6C226.2,197.5,332.5,156,458.3,156c75.6,0,145.1,15.3,206.6,45.5c48.1,23.6,90.1,55.1,124.8,93.6
		c28.1,31.1,25.7,79.1-5.4,107.3c-1.5,1.4-3.1,2.6-4.7,3.9l-0.3,0.3c-30.9,23.9-75,20.3-101.6-8.3c-23.9-25.9-52.5-47.1-84.3-62.4
		c-40.3-19.3-85.4-29.1-134.1-29.1c-52.9,0-102.5,12.8-147.5,38.2c-44.7,25.2-79.8,59.4-104.2,101.6c-24.1,41.7-36.5,89.5-36.9,142
		c0.3,52.5,12.7,100.3,36.9,142c24.4,42.2,59.5,76.4,104.2,101.6c45,25.3,94.6,38.2,147.5,38.2c48.7,0,93.8-9.8,134.1-29.1
		c31.8-15.3,60.4-36.5,84.3-62.4c26.6-28.7,70.6-32.4,101.6-8.4l0.3,0.3c33.3,25.6,39.5,73.2,13.9,106.5c-1.2,1.6-2.5,3.2-3.9,4.7
		c-34.7,38.5-76.7,70-124.8,93.6c-61.5,30.2-131,45.5-206.6,45.5c-125.7,0-232.1-41.5-316.2-123.3c-3.2-3.2-6.4-6.3-9.5-9.6
		c-26.1-27.1-68-31.3-98.9-9.8l-1,0.7c-38.1,26.7-43.8,81.1-11.8,114.8c107.4,113,259.2,183.4,427.4,183.2
		c325.1-0.5,587.4-263.2,587.4-588.3S773.3,0.5,448.2,0z M688.9,679.8c3.7,3.9,5.5,9.1,5.5,15.4c0,5.1-1.2,9.4-3.5,12.7s-5,5-8.1,5
		c-2,0-3.9-0.8-5.2-2.3l-113-106.3c-4.1-3.6-6.1-8.9-6.1-15.9c0-5.9,2.2-11.5,6.1-15.9l113-106.3c1.6-1.4,3.7-2.2,5.8-2.3
		c3.1,0,5.7,1.5,7.8,4.5c2.1,3,3.2,7,3.2,11.8c0,7-1.8,12.3-5.5,15.9l-98.4,91.8L688.9,679.8z M797.4,481.4l-57.2,229.5
		c-2.1,9.1-7.6,11-11.8,11c-3.6,0-6.6-1.9-9-5.6c-2.4-3.9-3.5-8.4-3.4-13c0-2.7,0.3-5.4,0.9-8l57.3-229.1c0.8-3.1,2.4-6,4.6-8.4
		c1.9-2,4.5-3.1,7.2-3.1c3.8,0,6.9,2,9.2,5.9c2.2,4,3.4,8.6,3.2,13.2C798.3,476.3,798,478.9,797.4,481.4z M836.4,710.7
		c-1.3,1.5-3.2,2.3-5.2,2.3c-3.1,0-5.8-1.7-8.1-5s-3.5-7.6-3.5-12.7c0-6.4,1.8-11.5,5.5-15.4l98.4-91.8l-98.4-91.8
		c-3.7-3.6-5.5-8.9-5.5-15.9c0-4.8,1.1-8.8,3.2-11.8c2.1-3,4.7-4.5,7.8-4.5c2.1,0.1,4.2,0.9,5.8,2.3l113,106.3
		c3.9,4.4,6,10,6.1,15.9c0,7-2,12.3-6.1,15.9L836.4,710.7z"/>
</g>
</svg>
