<svg xmlns="http://www.w3.org/2000/svg" viewBox="0 0 2000 2000"><defs><style>.cls-1{fill:#fff;}</style></defs><title>Logo_Cap-Code</title><g id="Camada_2" data-name="Camada 2"><path class="cls-1" d="M381,1457.85l-18.9,14.5a103.4,103.4,0,0,0-37.54-30.87q-21.92-10.5-48.13-10.5a106.45,106.45,0,0,0-53.11,13.76,98.85,98.85,0,0,0-37.87,37Q172,1504.93,172,1533.92q0,43.83,30.06,73.14t75.82,29.32q50.34,0,84.21-39.42l18.9,14.33a120.78,120.78,0,0,1-44.71,35.27Q309.49,1659,276.43,1659q-62.88,0-99.2-41.86-30.47-35.34-30.46-85.36,0-52.6,36.89-88.53t92.44-35.91q33.56,0,60.59,13.27A117.71,117.71,0,0,1,381,1457.85Z"/><path class="cls-1" d="M527,1413.38,638.69,1653H612.83l-37.69-78.83H471.92L434.59,1653H407.88l113.2-239.61Zm-3,50.91-41,86.74h81.91Z"/><path class="cls-1" d="M675.67,1413.38h47.72q41.05,0,55.38,3.59a61.46,61.46,0,0,1,33.56,20.77q13,15.72,13,39.5,0,23.94-12.71,39.5t-35,20.93q-16.29,3.9-60.92,3.91h-17.1V1653H675.67Zm23.94,23.46v81.28l40.56.49q24.58,0,36-4.47a36.92,36.92,0,0,0,17.92-14.47,40.05,40.05,0,0,0,6.51-22.35,39.56,39.56,0,0,0-6.51-22,36,36,0,0,0-17.19-14.22q-10.67-4.23-34.94-4.23Z"/><path class="cls-1" d="M1188.76,1457.85l-18.89,14.5a103.43,103.43,0,0,0-37.55-30.87q-21.9-10.5-48.13-10.5a106.44,106.44,0,0,0-53.1,13.76,98.71,98.71,0,0,0-37.87,37q-13.44,23.21-13.44,52.2,0,43.83,30.05,73.14t75.82,29.32q50.34,0,84.22-39.42l18.89,14.33a120.7,120.7,0,0,1-44.71,35.27q-26.79,12.46-59.86,12.46-62.88,0-99.2-41.86-30.47-35.34-30.46-85.36,0-52.6,36.89-88.53t92.44-35.91q33.56,0,60.6,13.27A117.76,117.76,0,0,1,1188.76,1457.85Z"/><path class="cls-1" d="M1317,1471.21q40.95,0,67.88,29.65,24.47,27,24.47,64,0,37.14-25.86,64.91T1317,1657.55q-40.8,0-66.66-27.77t-25.86-64.91q0-36.81,24.47-63.85Q1275.83,1471.22,1317,1471.21Zm-.09,22.32q-28.44,0-48.87,21t-20.43,50.82a72.12,72.12,0,0,0,9.31,35.84,66,66,0,0,0,25.18,25.65,71.56,71.56,0,0,0,69.63,0,66.14,66.14,0,0,0,25.18-25.65,72.12,72.12,0,0,0,9.31-35.84q0-29.8-20.51-50.82T1316.87,1493.53Z"/><path class="cls-1" d="M1628.4,1407.36V1653h-22.48v-30.46q-14.34,17.43-32.17,26.23a87,87,0,0,1-39,8.79q-37.63,0-64.26-27.28t-26.63-66.38q0-38.27,26.87-65.48t64.67-27.2q21.83,0,39.5,9.28t31,27.86v-101Zm-91.14,85.84a68.81,68.81,0,0,0-60.77,35.63,71.86,71.86,0,0,0,.08,71.59,69.87,69.87,0,0,0,25.79,26.6,67.34,67.34,0,0,0,34.74,9.52,71.12,71.12,0,0,0,35.47-9.44,66,66,0,0,0,25.79-25.54q9-16.11,9-36.28,0-30.75-20.26-51.42T1537.26,1493.2Z"/><path class="cls-1" d="M1829.24,1594.19l19.22,10.1q-9.45,18.57-21.85,30a86.69,86.69,0,0,1-27.88,17.35q-15.48,5.94-35,5.94-43.37,0-67.82-28.42t-24.46-64.26a94.69,94.69,0,0,1,20.71-60.1q26.23-33.55,70.26-33.56,45.33,0,72.39,34.37,19.24,24.27,19.57,60.59H1694.86q.65,30.88,19.73,50.63t47.13,19.74a75.93,75.93,0,0,0,26.34-4.7,69.41,69.41,0,0,0,21.77-12.5Q1818.8,1611.56,1829.24,1594.19Zm0-47.73q-4.56-18.24-13.29-29.15a62.83,62.83,0,0,0-23.08-17.59,70.56,70.56,0,0,0-30.17-6.68q-26.1,0-44.85,16.77-13.69,12.23-20.71,36.65Z"/><path class="cls-1" d="M142.57,1787.17v-61.55h1.33l41,47.18v-47.18h6.07v61.55h-1.38l-40.63-46.61v46.61Z"/><path class="cls-1" d="M204.21,1741.64h5.85v21.26q0,7.78.84,10.71a12,12,0,0,0,4.8,6.62,14.64,14.64,0,0,0,8.45,2.42,14.2,14.2,0,0,0,8.31-2.36,12.14,12.14,0,0,0,4.72-6.21q.88-2.64.88-11.18v-21.26h6V1764q0,9.42-2.19,14.19a16.83,16.83,0,0,1-6.61,7.47,24.21,24.21,0,0,1-22.18,0,16.62,16.62,0,0,1-6.66-7.54q-2.19-4.83-2.19-14.54Zm23.14-21.34h9L224,1733.19h-5.78Z"/><path class="cls-1" d="M301.25,1751.1,296.6,1754q-6-8-16.42-8a19,19,0,0,0-13.82,5.35,17.46,17.46,0,0,0-5.49,13,18.52,18.52,0,0,0,2.52,9.36,17.75,17.75,0,0,0,6.94,6.81A21,21,0,0,0,296.6,1775l4.65,3.06a21.87,21.87,0,0,1-8.77,7.62,28,28,0,0,1-12.53,2.71q-10.8,0-17.91-6.86a22.33,22.33,0,0,1-7.12-16.69,23.85,23.85,0,0,1,3.33-12.29,23.49,23.49,0,0,1,9.14-8.85,26.7,26.7,0,0,1,13-3.18,27.77,27.77,0,0,1,8.72,1.38,24.13,24.13,0,0,1,7.14,3.6A19.65,19.65,0,0,1,301.25,1751.1Z"/><path class="cls-1" d="M311.63,1724.07h5.85v63.1h-5.85Z"/><path class="cls-1" d="M368,1772.07l4.94,2.59a26.94,26.94,0,0,1-5.61,7.7,22.38,22.38,0,0,1-7.16,4.46,25,25,0,0,1-9,1.52q-11.14,0-17.42-7.3a24.64,24.64,0,0,1-6.29-16.51,24.38,24.38,0,0,1,5.32-15.44,21.78,21.78,0,0,1,18.05-8.62q11.65,0,18.6,8.83,4.95,6.24,5,15.57h-41a18.5,18.5,0,0,0,5.07,13,16.14,16.14,0,0,0,12.11,5.08,19.55,19.55,0,0,0,6.76-1.21,17.94,17.94,0,0,0,5.6-3.21A27.75,27.75,0,0,0,368,1772.07Zm0-12.26a19.36,19.36,0,0,0-3.41-7.49,16.14,16.14,0,0,0-5.93-4.52,18.07,18.07,0,0,0-7.75-1.72,16.7,16.7,0,0,0-11.52,4.31q-3.53,3.13-5.32,9.42Z"/><path class="cls-1" d="M406.91,1740.47a22.55,22.55,0,0,1,17.44,7.62,24.43,24.43,0,0,1-.36,33.12q-6.64,7.14-17.08,7.13t-17.12-7.13a24.38,24.38,0,0,1-.36-33.08A22.53,22.53,0,0,1,406.91,1740.47Zm0,5.74a16.9,16.9,0,0,0-12.56,5.39,18,18,0,0,0-5.25,13.06,18.51,18.51,0,0,0,2.4,9.21,17,17,0,0,0,6.46,6.59,18.4,18.4,0,0,0,17.89,0,17,17,0,0,0,6.47-6.59,18.5,18.5,0,0,0,2.39-9.21,18,18,0,0,0-5.27-13.06A16.9,16.9,0,0,0,406.89,1746.21Z"/><path class="cls-1" d="M510.65,1724.07v63.1h-5.78v-7.82a25.21,25.21,0,0,1-8.26,6.74,22.45,22.45,0,0,1-10,2.25,22.22,22.22,0,0,1-16.51-7,23.53,23.53,0,0,1-6.84-17.06,23.09,23.09,0,0,1,6.9-16.82,22.5,22.5,0,0,1,16.61-7,21.5,21.5,0,0,1,10.15,2.39,23,23,0,0,1,8,7.15v-25.94Zm-23.42,22a17.71,17.71,0,0,0-15.61,9.16,18.48,18.48,0,0,0,0,18.39,18.06,18.06,0,0,0,6.63,6.83,17.32,17.32,0,0,0,8.92,2.45,18.3,18.3,0,0,0,9.12-2.43,17,17,0,0,0,6.62-6.56,18.71,18.71,0,0,0,2.32-9.32,18.15,18.15,0,0,0-5.2-13.21A17.24,17.24,0,0,0,487.23,1746.12Z"/><path class="cls-1" d="M562.24,1772.07l4.94,2.59a26.94,26.94,0,0,1-5.61,7.7,22.38,22.38,0,0,1-7.16,4.46,25,25,0,0,1-9,1.52q-11.14,0-17.42-7.3a24.63,24.63,0,0,1-6.28-16.51,24.37,24.37,0,0,1,5.31-15.44,21.78,21.78,0,0,1,18.06-8.62q11.64,0,18.59,8.83,5,6.24,5,15.57h-41a18.5,18.5,0,0,0,5.07,13A16.14,16.14,0,0,0,544.9,1783a19.65,19.65,0,0,0,6.77-1.21,18,18,0,0,0,5.59-3.21A27.48,27.48,0,0,0,562.24,1772.07Zm0-12.26a19.36,19.36,0,0,0-3.41-7.49,16.14,16.14,0,0,0-5.93-4.52,18.07,18.07,0,0,0-7.75-1.72,16.7,16.7,0,0,0-11.52,4.31q-3.52,3.13-5.32,9.42Z"/><path class="cls-1" d="M598.19,1731.64v-6h33.73v6H618.19v55.53h-6.27v-55.53Z"/><path class="cls-1" d="M637.61,1741.64h6v6.66a21.16,21.16,0,0,1,5.65-5.88,11.14,11.14,0,0,1,6.2-2,10.77,10.77,0,0,1,5.19,1.55l-3.06,4.94a8.18,8.18,0,0,0-3.1-.8,8.52,8.52,0,0,0-5.65,2.41q-2.72,2.4-4.14,7.47-1.08,3.89-1.09,15.73v15.4h-6Z"/><path class="cls-1" d="M703.94,1772.07l4.93,2.59a26.94,26.94,0,0,1-5.61,7.7,22.38,22.38,0,0,1-7.16,4.46,25,25,0,0,1-9,1.52q-11.13,0-17.42-7.3a24.63,24.63,0,0,1-6.28-16.51,24.33,24.33,0,0,1,5.32-15.44,21.75,21.75,0,0,1,18-8.62q11.64,0,18.59,8.83,4.95,6.24,5,15.57h-41a18.5,18.5,0,0,0,5.07,13,16.16,16.16,0,0,0,12.11,5.08,19.65,19.65,0,0,0,6.77-1.21,18,18,0,0,0,5.59-3.21A27.48,27.48,0,0,0,703.94,1772.07Zm0-12.26a19.36,19.36,0,0,0-3.42-7.49,16.06,16.06,0,0,0-5.93-4.52,18.07,18.07,0,0,0-7.75-1.72,16.7,16.7,0,0,0-11.52,4.31q-3.52,3.13-5.32,9.42Z"/><path class="cls-1" d="M723.33,1722.9a4.64,4.64,0,0,1,3.42,1.42,4.8,4.8,0,0,1,0,6.82,4.64,4.64,0,0,1-3.42,1.42,4.85,4.85,0,0,1-4.79-4.81,4.67,4.67,0,0,1,1.42-3.43A4.58,4.58,0,0,1,723.33,1722.9Zm-2.91,18.74h5.86v45.53h-5.86Z"/><path class="cls-1" d="M738.46,1741.64h5.86v8.16a24.42,24.42,0,0,1,7.78-7,19.12,19.12,0,0,1,9.29-2.33,16.11,16.11,0,0,1,9.06,2.6,15.47,15.47,0,0,1,5.84,7c1.25,2.92,1.88,7.49,1.88,13.68v23.43h-5.86v-21.72c0-5.24-.21-8.74-.65-10.5a11.57,11.57,0,0,0-3.9-6.8,11.82,11.82,0,0,0-7.54-2.28,14.42,14.42,0,0,0-9.52,3.52,16.44,16.44,0,0,0-5.54,8.7q-.84,3.39-.84,12.39v16.69h-5.86Z"/><path class="cls-1" d="M836.09,1741.64v45.53h-5.78v-7.82a25.21,25.21,0,0,1-8.26,6.74,22.45,22.45,0,0,1-10,2.25,22.22,22.22,0,0,1-16.51-7,23.53,23.53,0,0,1-6.84-17.06,23.09,23.09,0,0,1,6.9-16.82,22.5,22.5,0,0,1,16.61-7,21.5,21.5,0,0,1,10.15,2.39,23,23,0,0,1,8,7.15v-8.37Zm-23.42,4.48a17.71,17.71,0,0,0-15.61,9.16,18.48,18.48,0,0,0,0,18.39,18.06,18.06,0,0,0,6.63,6.83,17.32,17.32,0,0,0,8.92,2.45,18.3,18.3,0,0,0,9.12-2.43,17,17,0,0,0,6.62-6.56,18.71,18.71,0,0,0,2.32-9.32,18.15,18.15,0,0,0-5.2-13.21A17.24,17.24,0,0,0,812.67,1746.12Z"/><path class="cls-1" d="M849.23,1741.64h5.86v7.87a22.6,22.6,0,0,1,6.28-6.36,17.88,17.88,0,0,1,9.34-2.68,15.51,15.51,0,0,1,6.29,1.3,13.58,13.58,0,0,1,4.86,3.45,18.71,18.71,0,0,1,3.26,6.17,21.71,21.71,0,0,1,7.31-8.14,17.32,17.32,0,0,1,9.43-2.78,14.74,14.74,0,0,1,8.33,2.39,14.24,14.24,0,0,1,5.37,6.65c1.17,2.85,1.75,7.11,1.75,12.81v24.85h-6v-24.85c0-4.89-.35-8.24-1.05-10.07a9,9,0,0,0-3.56-4.41,10.62,10.62,0,0,0-6-1.68,13.15,13.15,0,0,0-7.78,2.51,14.52,14.52,0,0,0-5.15,6.7q-1.62,4.19-1.62,14v17.82h-5.86v-23.31q0-8.23-1-11.19a9.32,9.32,0,0,0-3.58-4.73,10.37,10.37,0,0,0-6.06-1.78,13.12,13.12,0,0,0-7.6,2.45,14.47,14.47,0,0,0-5.23,6.59q-1.69,4.14-1.69,12.68v19.29h-5.86Z"/><path class="cls-1" d="M968,1772.07l4.94,2.59a26.77,26.77,0,0,1-5.62,7.7,22.38,22.38,0,0,1-7.16,4.46,24.91,24.91,0,0,1-9,1.52q-11.14,0-17.43-7.3a24.63,24.63,0,0,1-6.28-16.51,24.33,24.33,0,0,1,5.32-15.44,21.75,21.75,0,0,1,18-8.62q11.64,0,18.6,8.83,4.94,6.24,5,15.57h-41a18.59,18.59,0,0,0,5.07,13,16.16,16.16,0,0,0,12.11,5.08,19.61,19.61,0,0,0,6.77-1.21,18,18,0,0,0,5.59-3.21A27.48,27.48,0,0,0,968,1772.07Zm0-12.26a19.22,19.22,0,0,0-3.42-7.49,16.06,16.06,0,0,0-5.93-4.52,18,18,0,0,0-7.75-1.72,16.7,16.7,0,0,0-11.52,4.31q-3.52,3.13-5.32,9.42Z"/><path class="cls-1" d="M985.35,1741.64h5.86v8.16a24.45,24.45,0,0,1,7.79-7,19.09,19.09,0,0,1,9.29-2.33,16.16,16.16,0,0,1,9.06,2.6,15.45,15.45,0,0,1,5.83,7c1.26,2.92,1.89,7.49,1.89,13.68v23.43h-5.86v-21.72q0-7.86-.65-10.5a11.58,11.58,0,0,0-3.91-6.8,11.81,11.81,0,0,0-7.53-2.28,14.44,14.44,0,0,0-9.53,3.52,16.44,16.44,0,0,0-5.54,8.7q-.84,3.39-.84,12.39v16.69h-5.86Z"/><path class="cls-1" d="M1042.73,1724.74h5.85v16.9h9.29v5.07h-9.29v40.46h-5.85v-40.46h-8v-5.07h8Z"/><path class="cls-1" d="M1088.21,1740.47a22.54,22.54,0,0,1,17.44,7.62,24.45,24.45,0,0,1-.35,33.12q-6.65,7.14-17.09,7.13t-17.12-7.13a24.38,24.38,0,0,1-.36-33.08A22.53,22.53,0,0,1,1088.21,1740.47Zm0,5.74a16.86,16.86,0,0,0-12.55,5.39,18,18,0,0,0-5.25,13.06,18.5,18.5,0,0,0,2.39,9.21,16.94,16.94,0,0,0,6.47,6.59,18.4,18.4,0,0,0,17.89,0,17,17,0,0,0,6.46-6.59,18.51,18.51,0,0,0,2.4-9.21,18,18,0,0,0-5.27-13.06A16.94,16.94,0,0,0,1088.19,1746.21Z"/><path class="cls-1" d="M1192,1724.07v63.1h-5.77v-7.82a25.24,25.24,0,0,1-8.27,6.74,23.13,23.13,0,0,1-26.53-4.75,23.53,23.53,0,0,1-6.84-17.06,23.09,23.09,0,0,1,6.9-16.82,22.52,22.52,0,0,1,16.62-7,21.46,21.46,0,0,1,10.14,2.39,23.09,23.09,0,0,1,8,7.15v-25.94Zm-23.41,22a17.71,17.71,0,0,0-15.62,9.16,18.45,18.45,0,0,0,0,18.39,18,18,0,0,0,6.62,6.83,17.32,17.32,0,0,0,8.93,2.45,18.26,18.26,0,0,0,9.11-2.43,16.91,16.91,0,0,0,6.62-6.56,18.71,18.71,0,0,0,2.32-9.32,18.11,18.11,0,0,0-5.2-13.21A17.24,17.24,0,0,0,1168.54,1746.12Z"/><path class="cls-1" d="M1243.55,1772.07l4.94,2.59a27,27,0,0,1-5.62,7.7,22.38,22.38,0,0,1-7.16,4.46,24.93,24.93,0,0,1-9,1.52q-11.13,0-17.42-7.3a24.63,24.63,0,0,1-6.28-16.51,24.33,24.33,0,0,1,5.32-15.44,21.75,21.75,0,0,1,18-8.62q11.64,0,18.59,8.83,4.95,6.24,5,15.57h-41a18.5,18.5,0,0,0,5.07,13,16.16,16.16,0,0,0,12.11,5.08,19.65,19.65,0,0,0,6.77-1.21,18,18,0,0,0,5.59-3.21A27.48,27.48,0,0,0,1243.55,1772.07Zm0-12.26a19.36,19.36,0,0,0-3.42-7.49,16.06,16.06,0,0,0-5.93-4.52,18.07,18.07,0,0,0-7.75-1.72,16.7,16.7,0,0,0-11.52,4.31q-3.53,3.13-5.32,9.42Z"/><path class="cls-1" d="M1285.56,1725.62h12.26q10.54,0,14.23.92a15.77,15.77,0,0,1,8.62,5.33,17.22,17.22,0,0,1,.08,20.3,16.11,16.11,0,0,1-9,5.38q-4.18,1-15.65,1h-4.4v28.62h-6.15Zm6.15,6v20.88l10.42.13c4.21,0,7.3-.38,9.25-1.15a9.39,9.39,0,0,0,4.6-3.72,10.51,10.51,0,0,0,0-11.4,9.21,9.21,0,0,0-4.41-3.65c-1.83-.72-4.82-1.09-9-1.09Z"/><path class="cls-1" d="M1333.14,1741.64h6v6.66a21.16,21.16,0,0,1,5.65-5.88,11.14,11.14,0,0,1,6.2-2,10.77,10.77,0,0,1,5.19,1.55l-3.06,4.94a8.18,8.18,0,0,0-3.1-.8,8.52,8.52,0,0,0-5.65,2.41q-2.71,2.4-4.14,7.47-1.08,3.89-1.09,15.73v15.4h-6Z"/><path class="cls-1" d="M1382.69,1740.47a22.57,22.57,0,0,1,17.44,7.62,24.46,24.46,0,0,1-.36,33.12q-6.64,7.14-17.08,7.13t-17.13-7.13a24.4,24.4,0,0,1-.35-33.08A22.51,22.51,0,0,1,1382.69,1740.47Zm0,5.74a16.88,16.88,0,0,0-12.56,5.39,18,18,0,0,0-5.25,13.06,18.6,18.6,0,0,0,2.39,9.21,17,17,0,0,0,6.47,6.59,18.4,18.4,0,0,0,17.89,0,17,17,0,0,0,6.47-6.59,18.6,18.6,0,0,0,2.39-9.21,18,18,0,0,0-5.27-13.06A16.9,16.9,0,0,0,1382.67,1746.21Z"/><path class="cls-1" d="M1456.5,1741.64h5.86v36.29c0,6.38-.56,11.06-1.67,14a18.23,18.23,0,0,1-8,9.67A26.24,26.24,0,0,1,1439,1805a31.17,31.17,0,0,1-10.52-1.66,21,21,0,0,1-7.6-4.45,26.59,26.59,0,0,1-5.4-8.16h6.36a16.94,16.94,0,0,0,6.71,6.7,21.54,21.54,0,0,0,10.18,2.17,21,21,0,0,0,10.12-2.23,13.69,13.69,0,0,0,5.88-5.61q1.77-3.37,1.76-10.91v-2.34a22.12,22.12,0,0,1-8.08,6.42,24,24,0,0,1-22-.87,22.18,22.18,0,0,1-8.55-8.39,23.55,23.55,0,0,1,8.82-32,23.19,23.19,0,0,1,11.71-3.18,21.8,21.8,0,0,1,9.53,2.12,26.1,26.1,0,0,1,8.52,7Zm-17.28,4.48a18.48,18.48,0,0,0-9.25,2.41,17.38,17.38,0,0,0-6.69,6.65,18.2,18.2,0,0,0-2.43,9.19,16.54,16.54,0,0,0,5,12.38q5,4.9,13,4.9t13-4.85q4.92-4.86,4.92-12.77a18.53,18.53,0,0,0-2.26-9.18,16.38,16.38,0,0,0-6.41-6.38A17.72,17.72,0,0,0,1439.22,1746.12Z"/><path class="cls-1" d="M1472.7,1741.64h6v6.66a21.16,21.16,0,0,1,5.65-5.88,11.13,11.13,0,0,1,6.19-2,10.71,10.71,0,0,1,5.19,1.55l-3,4.94a8.18,8.18,0,0,0-3.1-.8,8.52,8.52,0,0,0-5.65,2.41q-2.72,2.4-4.14,7.47-1.1,3.89-1.09,15.73v15.4h-6Z"/><path class="cls-1" d="M1546.05,1741.64v45.53h-5.77v-7.82a25.31,25.31,0,0,1-8.26,6.74,23.15,23.15,0,0,1-26.54-4.75,23.53,23.53,0,0,1-6.84-17.06,23.06,23.06,0,0,1,6.91-16.82,22.5,22.5,0,0,1,16.61-7,21.5,21.5,0,0,1,10.15,2.39,23.15,23.15,0,0,1,8,7.15v-8.37Zm-23.41,4.48a17.68,17.68,0,0,0-15.61,9.16,18.41,18.41,0,0,0,0,18.39,17.92,17.92,0,0,0,6.63,6.83,17.29,17.29,0,0,0,8.92,2.45,18.26,18.26,0,0,0,9.11-2.43,16.93,16.93,0,0,0,6.63-6.56,18.81,18.81,0,0,0,2.32-9.32,18.12,18.12,0,0,0-5.21-13.21A17.24,17.24,0,0,0,1522.64,1746.12Z"/><path class="cls-1" d="M1559.19,1741.64h5.86v7.87a22.75,22.75,0,0,1,6.29-6.36,17.85,17.85,0,0,1,9.34-2.68,15.43,15.43,0,0,1,6.28,1.3,13.41,13.41,0,0,1,4.86,3.45,18.53,18.53,0,0,1,3.27,6.17,21.63,21.63,0,0,1,7.31-8.14,17.3,17.3,0,0,1,9.43-2.78,14.77,14.77,0,0,1,8.33,2.39,14.24,14.24,0,0,1,5.37,6.65c1.16,2.85,1.75,7.11,1.75,12.81v24.85h-6v-24.85c0-4.89-.34-8.24-1-10.07a9,9,0,0,0-3.56-4.41,10.66,10.66,0,0,0-6-1.68,13.13,13.13,0,0,0-7.78,2.51,14.46,14.46,0,0,0-5.15,6.7q-1.63,4.19-1.63,14v17.82h-5.86v-23.31q0-8.23-1-11.19a9.38,9.38,0,0,0-3.58-4.73,10.38,10.38,0,0,0-6.07-1.78,13.11,13.11,0,0,0-7.59,2.45,14.47,14.47,0,0,0-5.23,6.59q-1.7,4.14-1.7,12.68v19.29h-5.86Z"/><path class="cls-1" d="M1685,1741.64v45.53h-5.77v-7.82a25.31,25.31,0,0,1-8.26,6.74,23.15,23.15,0,0,1-26.54-4.75,23.53,23.53,0,0,1-6.84-17.06,23.06,23.06,0,0,1,6.91-16.82,22.5,22.5,0,0,1,16.61-7,21.5,21.5,0,0,1,10.15,2.39,23.15,23.15,0,0,1,8,7.15v-8.37Zm-23.41,4.48a17.68,17.68,0,0,0-15.61,9.16,18.41,18.41,0,0,0,0,18.39,17.92,17.92,0,0,0,6.63,6.83,17.29,17.29,0,0,0,8.92,2.45,18.26,18.26,0,0,0,9.11-2.43,16.93,16.93,0,0,0,6.63-6.56,18.81,18.81,0,0,0,2.32-9.32,18.12,18.12,0,0,0-5.21-13.21A17.24,17.24,0,0,0,1661.57,1746.12Z"/><path class="cls-1" d="M1742.36,1751.1l-4.65,2.89q-6-8-16.42-8a19,19,0,0,0-13.82,5.35,17.47,17.47,0,0,0-5.5,13,18.53,18.53,0,0,0,2.53,9.36,17.75,17.75,0,0,0,6.94,6.81,21,21,0,0,0,26.27-5.57l4.65,3.06a21.87,21.87,0,0,1-8.77,7.62,28,28,0,0,1-12.53,2.71q-10.8,0-17.91-6.86a22.29,22.29,0,0,1-7.12-16.69,23.85,23.85,0,0,1,3.33-12.29,23.49,23.49,0,0,1,9.14-8.85,26.7,26.7,0,0,1,13-3.18,27.77,27.77,0,0,1,8.72,1.38,24.26,24.26,0,0,1,7.14,3.6A19.65,19.65,0,0,1,1742.36,1751.1Zm-23.9,36.07h3.69l-.72,5a13.41,13.41,0,0,1,1.59-.12,4.85,4.85,0,0,1,3.43,1.27,4.15,4.15,0,0,1,1.39,3.2,5.74,5.74,0,0,1-2.51,4.69,11.46,11.46,0,0,1-7.08,1.93,19.18,19.18,0,0,1-7-1.26l.92-2.89a16.75,16.75,0,0,0,5,.84,9,9,0,0,0,4.39-.77,2.27,2.27,0,0,0,1.26-2,1.57,1.57,0,0,0-.69-1.25,3,3,0,0,0-1.91-.55,16.87,16.87,0,0,0-2.93.38Z"/><path class="cls-1" d="M1799,1741.64v45.53h-5.77v-7.82a25.31,25.31,0,0,1-8.26,6.74,23.15,23.15,0,0,1-26.54-4.75,23.53,23.53,0,0,1-6.84-17.06,23.06,23.06,0,0,1,6.91-16.82,22.5,22.5,0,0,1,16.61-7,21.5,21.5,0,0,1,10.15,2.39,23.15,23.15,0,0,1,8,7.15v-8.37Zm-23.41,4.48a17.68,17.68,0,0,0-15.61,9.16,18.41,18.41,0,0,0,0,18.39,17.92,17.92,0,0,0,6.63,6.83,17.29,17.29,0,0,0,8.92,2.45,18.26,18.26,0,0,0,9.11-2.43,16.93,16.93,0,0,0,6.63-6.56,18.81,18.81,0,0,0,2.32-9.32,18.12,18.12,0,0,0-5.21-13.21A17.24,17.24,0,0,0,1775.56,1746.12Zm13.16-21.42,2.93,4.06a22.59,22.59,0,0,1-5.08,3,12.53,12.53,0,0,1-4.38.76,14.15,14.15,0,0,1-6.19-1.55,29.21,29.21,0,0,0-3.47-1.55,8,8,0,0,0-2.18-.29,7.42,7.42,0,0,0-2.78.52,19.67,19.67,0,0,0-3.83,2.37l-2.76-4.27a12.35,12.35,0,0,1,9.41-4.1,15.91,15.91,0,0,1,6.41,1.71,14.32,14.32,0,0,0,5.6,1.68C1783.94,1727,1786,1726.23,1788.72,1724.7Z"/><path class="cls-1" d="M1833.71,1740.47a22.57,22.57,0,0,1,17.44,7.62,24.46,24.46,0,0,1-.36,33.12q-6.64,7.14-17.08,7.13t-17.13-7.13a24.4,24.4,0,0,1-.35-33.08A22.51,22.51,0,0,1,1833.71,1740.47Zm0,5.74a16.9,16.9,0,0,0-12.56,5.39,18,18,0,0,0-5.25,13.06,18.6,18.6,0,0,0,2.39,9.21,17.08,17.08,0,0,0,6.47,6.59,18.4,18.4,0,0,0,17.89,0,17,17,0,0,0,6.47-6.59,18.6,18.6,0,0,0,2.39-9.21,18,18,0,0,0-5.27-13.06A16.9,16.9,0,0,0,1833.69,1746.21Z"/><path class="cls-1" d="M1000.92,147.73c-168.25-.24-320,70.15-427.42,183.16-32,33.7-26.23,88.1,11.84,114.76l1,.72a76.53,76.53,0,0,0,98.92-9.78q4.68-4.83,9.55-9.56C778.9,345.19,885.28,303.7,1011,303.7c75.62,0,145.14,15.3,206.63,45.49,48.1,23.62,90.08,55.11,124.76,93.61a75.94,75.94,0,0,1-10.05,111.14l-.34.26a75.46,75.46,0,0,1-101.56-8.35,280.61,280.61,0,0,0-84.28-62.39c-40.31-19.33-85.44-29.13-134.14-29.13-52.88,0-102.49,12.84-147.45,38.16-44.72,25.2-79.78,59.38-104.22,101.59-24.14,41.7-36.53,89.46-36.88,142,.35,52.5,12.74,100.25,36.88,142,24.44,42.21,59.5,76.38,104.22,101.58,45,25.32,94.57,38.16,147.45,38.16,48.7,0,93.83-9.8,134.14-29.13a280.41,280.41,0,0,0,84.28-62.38A75.48,75.48,0,0,1,1332,917.87l.34.27a75.94,75.94,0,0,1,10.05,111.14c-34.68,38.49-76.66,70-124.76,93.61-61.49,30.18-131,45.49-206.63,45.49-125.74,0-232.12-41.5-316.18-123.33q-4.87-4.74-9.55-9.56a76.53,76.53,0,0,0-98.92-9.79l-1,.72c-38.07,26.66-43.85,81.06-11.84,114.76,107.37,113,259.17,183.4,427.42,183.16,325.12-.47,587.44-263.18,587.44-588.3S1326,148.2,1000.92,147.73ZM1241.6,827.57q5.51,5.91,5.52,15.44,0,7.72-3.49,12.72t-8.13,5a7.28,7.28,0,0,1-5.23-2.27l-113-106.3q-6.1-5.45-6.1-15.9a24.18,24.18,0,0,1,6.1-15.89l113-106.3a9.45,9.45,0,0,1,5.81-2.27q4.65,0,7.84,4.54t3.2,11.81q0,10.46-5.52,15.9l-98.44,91.76Zm108.54-198.46L1292.9,858.62c-2.13,9.13-7.6,11-11.81,11-3.59,0-6.62-1.9-9-5.64a23.8,23.8,0,0,1-3.41-13,38.64,38.64,0,0,1,.9-8l57.26-229.09a18.92,18.92,0,0,1,4.58-8.38,10,10,0,0,1,7.23-3.13c3.8,0,6.89,2,9.18,5.92a25.82,25.82,0,0,1,3.24,13.19A32.29,32.29,0,0,1,1350.14,629.11Zm39,229.35a6.69,6.69,0,0,1-5.23,2.27c-3.1,0-5.8-1.66-8.13-5s-3.48-7.57-3.48-12.72q0-9.54,5.51-15.44l98.44-91.76-98.44-91.76q-5.5-5.44-5.51-15.9,0-7.26,3.19-11.81t7.84-4.54a9.47,9.47,0,0,1,5.81,2.27l113,106.3a24.22,24.22,0,0,1,6.09,15.89q0,10.46-6.09,15.9Z"/></g></svg>