<svg id="Camada_1" data-name="Camada 1" xmlns="http://www.w3.org/2000/svg" viewBox="0 0 70 70"><defs><style>.cls-1{fill:#fff;}.cls-2{fill:#232323;}</style></defs><title>seta cc</title><circle class="cls-1" cx="35" cy="35" r="35"/><line class="cls-2" x1="11.92" y1="31.64" x2="35" y2="8.77"/><path d="M19,40,39.22,20l2.9-2.88c2.75-2.72-1.49-7-4.24-4.24l-20.18,20-2.9,2.87c-2.75,2.72,1.49,7,4.24,4.24Z" transform="translate(-5 -6.23)"/><line class="cls-2" x1="58.08" y1="31.64" x2="35" y2="8.77"/><path d="M65.2,35.75,45,15.76l-2.9-2.88c-2.74-2.72-7,1.52-4.24,4.24l20.18,20L61,40c2.74,2.72,7-1.52,4.24-4.24Z" transform="translate(-5 -6.23)"/><line class="cls-2" x1="11.92" y1="52.51" x2="35" y2="29.65"/><path d="M19,60.86l20.18-20L42.12,38c2.75-2.73-1.49-7-4.24-4.25l-20.18,20-2.9,2.87c-2.75,2.72,1.49,7,4.24,4.24Z" transform="translate(-5 -6.23)"/><line class="cls-2" x1="58.08" y1="52.51" x2="35" y2="29.65"/><path d="M65.2,56.62,45,36.63l-2.9-2.88c-2.74-2.72-7,1.52-4.24,4.25L58.06,58,61,60.86c2.74,2.72,7-1.52,4.24-4.24Z" transform="translate(-5 -6.23)"/></svg>